<?xml version="1.0" standalone="no"?>
<!DOCTYPE svg PUBLIC "-//W3C//DTD SVG 20010904//EN"
 "http://www.w3.org/TR/2001/REC-SVG-20010904/DTD/svg10.dtd">
<svg version="1.0" xmlns="http://www.w3.org/2000/svg"
 width="256.000000pt" height="256.000000pt" viewBox="0 0 256.000000 256.000000"
 preserveAspectRatio="xMidYMid meet">

<g transform="translate(0.000000,256.000000) scale(0.100000,-0.100000)"
fill="#000000" stroke="none">
<path d="M1148 2060 c-139 -22 -293 -95 -401 -190 -102 -90 -193 -236 -228
-366 -29 -105 -31 -308 -5 -404 26 -98 97 -237 161 -313 158 -190 351 -280
605 -280 361 0 653 220 761 573 19 62 23 98 22 205 0 178 -31 291 -115 416
-152 227 -373 355 -632 364 -61 2 -137 0 -168 -5z m166 -114 c39 -52 55 -66
70 -60 16 6 40 -21 31 -36 -3 -5 -13 -10 -22 -10 -33 0 -63 -41 -63 -85 0 -33
6 -47 33 -73 27 -26 41 -32 68 -30 25 2 34 -1 34 -12 0 -11 -10 -14 -40 -12
-33 2 -47 10 -77 45 -32 35 -38 49 -38 86 0 35 6 51 27 73 l27 28 -38 38 -37
37 3 -188 c3 -161 1 -187 -12 -187 -13 0 -15 26 -12 187 l3 188 -37 -37 -38
-38 27 -28 c21 -22 27 -38 27 -74 0 -39 -6 -52 -37 -86 -27 -30 -49 -43 -76
-48 -35 -6 -39 -4 -35 12 3 15 11 18 34 16 25 -2 38 5 68 39 31 34 37 47 32
70 -9 46 -35 79 -63 79 -35 0 -29 44 7 48 27 4 70 39 70 57 0 12 20 35 31 35
4 0 18 -15 33 -34z m-179 -146 c-3 -5 -27 -10 -52 -10 l-45 0 3 -115 c4 -107
3 -115 -15 -115 -14 0 -17 5 -12 23 3 12 6 68 6 125 l0 102 61 0 c37 0 58 -4
54 -10z m417 -107 c3 -121 0 -140 -25 -130 -11 4 -12 18 -5 69 4 34 5 84 2
111 l-6 47 -44 0 c-24 0 -44 5 -44 10 0 6 26 10 59 10 l60 0 3 -117z m-733
-37 c9 -10 8 -16 -4 -26 -17 -14 -45 -7 -45 13 0 29 30 37 49 13z m968 -2 c9
-23 -13 -40 -32 -24 -12 10 -13 16 -4 26 15 18 28 18 36 -2z m-1059 -206 c2
-13 -5 -17 -35 -20 -30 -2 -38 -7 -38 -23 0 -14 8 -21 28 -23 34 -4 34 -35 0
-40 -17 -3 -23 -11 -25 -40 -2 -29 -7 -37 -23 -37 -18 0 -20 8 -23 97 l-3 97
38 4 c60 6 78 3 81 -15z m140 -74 c3 -100 -5 -114 -64 -114 -49 0 -64 28 -64
122 0 71 2 78 20 78 18 0 20 -7 20 -73 0 -74 11 -100 36 -90 10 4 14 26 14 82
0 43 3 81 7 85 19 19 28 -8 31 -90z m70 84 c7 -7 12 -42 12 -85 l0 -73 30 0
c23 0 30 -4 30 -20 0 -18 -7 -20 -55 -20 l-55 0 0 98 c0 111 7 131 38 100z
m382 -8 c12 -12 18 -25 15 -30 -8 -13 -45 -13 -45 0 0 6 -9 10 -20 10 -33 0
-23 -27 23 -57 49 -33 59 -69 28 -97 -27 -25 -89 -18 -108 11 -14 20 -14 23 1
29 10 4 25 -1 36 -11 10 -9 24 -14 29 -10 21 12 11 36 -23 52 -41 19 -59 53
-46 87 15 40 77 49 110 16z m123 14 c39 -7 53 -34 17 -34 -17 0 -19 -8 -22
-82 -3 -75 -5 -83 -23 -83 -18 0 -20 8 -23 83 -3 74 -5 82 -22 82 -13 0 -20 7
-20 20 0 22 22 25 93 14z m307 -14 c25 -25 26 -50 1 -50 -10 0 -21 7 -25 15
-3 8 -15 15 -26 15 -18 0 -20 -6 -20 -64 0 -67 16 -90 40 -60 15 17 50 19 50
2 0 -23 -34 -48 -65 -48 -53 0 -68 19 -73 91 -3 54 -1 68 18 92 26 33 71 36
100 7z m-680 -69 l0 -80 33 -3 c20 -2 32 -8 32 -18 0 -11 -14 -16 -52 -18
l-53 -3 0 100 c0 94 1 101 20 101 18 0 20 -7 20 -79z m531 -16 c14 -49 24 -93
22 -97 -9 -16 -41 -7 -46 12 -3 13 -14 20 -30 20 -16 0 -26 -7 -30 -20 -5 -19
-47 -30 -47 -12 0 6 32 126 46 175 4 13 14 17 32 15 25 -3 29 -11 53 -93z
m231 58 l3 -38 25 37 c16 25 33 38 48 38 28 0 28 -4 -5 -46 l-26 -35 26 -55
c32 -65 32 -64 7 -64 -13 0 -27 14 -41 43 -19 37 -23 40 -30 22 -4 -11 -8 -30
-8 -42 -1 -16 -7 -23 -21 -23 -19 0 -20 7 -20 100 0 92 1 100 19 100 16 0 20
-8 23 -37z m-1039 -253 c35 0 18 -29 -20 -32 -30 -2 -38 -7 -38 -23 0 -14 8
-21 28 -23 15 -2 27 -9 27 -17 0 -8 -12 -15 -27 -17 -20 -2 -29 -9 -31 -25 -3
-21 1 -23 38 -23 34 0 41 -3 38 -17 -3 -15 -14 -18 -58 -18 l-55 0 -3 89 c-4
115 -1 120 46 112 20 -3 45 -6 55 -6z m104 -51 l33 -54 0 53 c0 45 3 52 20 52
19 0 20 -7 20 -101 0 -90 -2 -100 -17 -97 -10 2 -29 24 -43 51 -14 26 -28 47
-32 47 -5 0 -8 -23 -8 -51 0 -43 -3 -50 -17 -47 -15 3 -18 17 -21 92 -4 137 9
148 65 55z m231 34 c6 -9 12 -23 12 -30 0 -18 -37 -16 -44 3 -3 9 -15 14 -28
12 -20 -3 -23 -10 -26 -59 -3 -63 15 -92 43 -69 8 7 15 19 15 26 0 8 -7 14
-15 14 -8 0 -15 7 -15 15 0 10 11 15 35 15 34 0 35 -1 35 -37 0 -50 -8 -60
-53 -68 -27 -5 -44 -3 -62 9 -23 15 -25 23 -25 84 0 90 21 117 85 106 17 -2
36 -12 43 -21z m184 -30 l33 -58 3 58 c3 49 6 58 20 55 15 -3 17 -17 17 -103
0 -86 -2 -100 -17 -103 -12 -2 -25 13 -45 50 l-28 53 -5 -50 c-4 -37 -9 -51
-22 -53 -16 -3 -18 7 -18 96 0 135 11 145 62 55z m-102 -53 c0 -93 -1 -100
-20 -100 -19 0 -20 7 -20 100 0 93 1 100 20 100 19 0 20 -7 20 -100z m330 86
c0 -10 -13 -16 -37 -18 -30 -2 -38 -7 -38 -23 0 -14 8 -21 28 -23 15 -2 27 -9
27 -17 0 -8 -12 -15 -27 -17 -20 -2 -29 -9 -31 -25 -3 -21 1 -23 37 -23 35 0
41 -3 41 -20 0 -19 -5 -21 -57 -18 l-58 3 -3 98 -3 97 61 0 c46 0 60 -3 60
-14z m150 0 c0 -10 -13 -16 -37 -18 -30 -2 -38 -7 -38 -23 0 -14 8 -21 28 -23
15 -2 27 -9 27 -17 0 -8 -12 -15 -27 -17 -20 -2 -29 -9 -31 -25 -3 -21 1 -23
37 -23 34 0 41 -3 41 -20 0 -18 -7 -20 -60 -20 l-60 0 0 100 0 100 60 0 c46 0
60 -3 60 -14z m148 2 c15 -15 15 -63 0 -88 -10 -15 -9 -26 5 -55 21 -45 21
-45 -3 -45 -13 0 -27 14 -40 40 -11 22 -25 40 -30 40 -6 0 -10 -18 -10 -40 0
-33 -3 -40 -20 -40 -19 0 -20 7 -20 100 l0 100 53 0 c29 0 58 -5 65 -12z
m-547 -386 c-1 -67 1 -122 5 -122 4 0 20 12 36 27 l27 26 -24 29 c-14 16 -25
35 -25 42 0 24 74 83 113 89 32 5 37 3 37 -14 0 -18 -4 -20 -30 -14 -23 5 -37
1 -65 -22 -19 -15 -35 -32 -35 -37 0 -17 43 -56 62 -56 14 0 19 -6 16 -22 -2
-17 -10 -23 -30 -23 -30 0 -78 -40 -78 -66 0 -10 -5 -21 -10 -24 -14 -9 -42
15 -36 31 7 18 -42 59 -72 59 -32 0 -43 32 -15 42 24 8 63 44 63 58 0 6 -13
23 -28 38 -22 21 -37 27 -63 25 -25 -2 -34 1 -34 12 0 28 76 13 113 -23 38
-36 39 -49 11 -89 l-22 -30 32 -31 32 -32 -1 120 c-2 143 -3 138 12 133 9 -3
12 -37 9 -126z m-251 42 l0 -64 51 0 c31 0 48 -4 44 -10 -3 -5 -31 -10 -61
-10 l-54 0 0 81 c0 51 4 78 10 74 6 -3 10 -35 10 -71z m502 -76 c-5 -12 -112
-9 -112 2 0 6 20 10 45 10 l45 0 0 63 c0 35 3 67 8 71 7 8 20 -131 14 -146z
m-684 105 c5 -17 -26 -29 -40 -15 -6 6 -7 15 -3 22 9 14 37 9 43 -7z m882 -3
c0 -13 -7 -20 -18 -20 -24 0 -32 8 -25 26 8 22 43 17 43 -6z"/>
<path d="M1539 1383 c-1 -13 -2 -28 -3 -35 -1 -6 5 -13 12 -15 14 -5 16 35 2
57 -8 12 -10 11 -11 -7z"/>
<path d="M1760 1110 c0 -27 3 -31 23 -28 16 2 22 10 22 28 0 18 -6 26 -22 28
-20 3 -23 -1 -23 -28z"/>
</g>
</svg>
